<svg width="56" height="54" viewBox="0 0 56 54" fill="none" xmlns="http://www.w3.org/2000/svg">
<path d="M43.5115 37.8794L54.5953 26.8881C56.274 25.2233 56.274 22.5145 54.5952 20.8497C54.0033 20.2627 53.2803 19.8837 52.5188 19.7107C52.7799 19.154 52.9182 18.5431 52.9182 17.9109C52.9182 16.7704 52.4703 15.6982 51.6571 14.8918C51.0194 14.2593 50.2164 13.8508 49.345 13.7036C49.8356 12.2212 49.4888 10.5235 48.3022 9.34694C47.6498 8.7001 46.8385 8.30588 45.9916 8.16179C46.1335 7.73483 46.2083 7.28397 46.2083 6.82133C46.2083 5.68082 45.7604 4.60861 44.9473 3.80227C44.1341 2.99594 43.0529 2.55176 41.9029 2.55176C41.1726 2.55176 40.4704 2.73143 39.8466 3.06878L39.7363 2.95131C38.3036 1.4245 36.2756 0.54895 34.1727 0.54895H25.2009C24.5699 0.54895 24.0583 1.05634 24.0583 1.68199V3.16779C24.0583 3.7624 24.1597 4.34127 24.3537 4.88558C23.8369 4.67273 23.2777 4.56092 22.7013 4.56092C21.5512 4.56092 20.47 5.00509 19.6568 5.81143C18.4697 6.98865 18.1232 8.68764 18.615 10.1705C17.7675 10.3142 16.9549 10.7087 16.302 11.3561C15.4889 12.1625 15.041 13.2348 15.041 14.3752C15.041 14.8369 15.1156 15.2871 15.2569 15.7131C14.3864 15.8607 13.5843 16.269 12.9471 16.901C11.636 18.2011 11.3489 20.1382 12.0859 21.7172C11.3055 21.8941 10.5888 22.2838 10.0088 22.8589C8.3301 24.5236 8.3301 27.2323 10.0088 28.8971L12.2882 31.1574L1.06658 42.2853C0.620385 42.7277 0.620385 43.4452 1.06658 43.8877C1.28968 44.1089 1.58211 44.2197 1.87444 44.2197C2.16676 44.2197 2.4592 44.109 2.68229 43.8877L14.0122 32.6523C14.6536 33.0152 15.3815 33.2094 16.1401 33.2094C17.2901 33.2094 18.3713 32.7652 19.1845 31.9588C20.068 31.0828 20.4859 29.9174 20.4394 28.7674C20.4973 28.7698 20.5552 28.7715 20.6131 28.7715C21.7155 28.7714 22.8184 28.3552 23.6576 27.523C24.4707 26.7166 24.9186 25.6444 24.9186 24.504C24.9186 24.4463 24.9166 24.389 24.9144 24.3317C24.9716 24.3339 25.0288 24.3357 25.0862 24.3357C26.1886 24.3357 27.2913 23.9195 28.1306 23.0873C28.9437 22.2808 29.3916 21.2086 29.3916 20.0682C29.3916 20.0106 29.3897 19.9532 29.3874 19.8959C29.4446 19.8982 29.5019 19.9 29.5592 19.9C30.6618 19.9 31.7644 19.4838 32.6036 18.6515C34.181 17.0873 34.2759 14.6016 32.8892 12.9261L40.4736 5.40486C40.8553 5.02628 41.3625 4.81795 41.9022 4.81795C42.442 4.81795 42.9493 5.02628 43.3309 5.40486C43.7126 5.78334 43.9226 6.28631 43.9226 6.82156C43.9226 7.3567 43.7126 7.85989 43.3308 8.23825L42.2126 9.34716L38.1552 13.3707C37.709 13.8132 37.709 14.5306 38.1552 14.9732C38.3783 15.1943 38.6708 15.3051 38.9631 15.3051C39.2554 15.3051 39.5479 15.1944 39.771 14.9732L43.8283 10.9496C44.6159 10.1685 45.8977 10.1683 46.6856 10.9495C47.4734 11.7308 47.4734 13.0018 46.6856 13.7831L45.5673 14.8922L42.6283 17.8067C42.1821 18.2491 42.1821 18.9666 42.6283 19.4091C42.8514 19.6303 43.1438 19.7411 43.4361 19.7411C43.7285 19.7411 44.0209 19.6304 44.244 19.4091L47.183 16.4946C47.5646 16.1161 48.0719 15.9077 48.6116 15.9077C49.1513 15.9077 49.6586 16.1161 50.0403 16.4946C50.4219 16.8731 50.632 17.3761 50.632 17.9113C50.632 18.4465 50.4219 18.9497 50.0402 19.328L48.5052 20.8502L47.1012 22.2425C46.655 22.685 46.655 23.4024 47.1012 23.845C47.3243 24.0661 47.6167 24.1769 47.909 24.1769C48.2014 24.1769 48.4938 24.0662 48.7169 23.845L50.122 22.4517C50.9098 21.6717 52.1908 21.6718 52.9783 22.4527C53.7661 23.2339 53.7661 24.505 52.9783 25.2863L41.8944 36.2776C39.1113 39.0377 35.4123 40.6356 31.4789 40.7772C31.1898 40.7876 30.9151 40.9064 30.7109 41.1099L20.4719 51.3011C20.0265 51.7444 20.0278 52.4618 20.4749 52.9035C20.6978 53.1237 20.9895 53.2339 21.2813 53.2339C21.5743 53.2339 21.8675 53.1228 22.0906 52.9005L29.6217 45.4047C31.5346 46.6217 33.7843 47.2003 36.0719 47.0503L41.9661 52.8955C42.1892 53.1167 42.4816 53.2274 42.7739 53.2274C43.0664 53.2274 43.3587 53.1168 43.5818 52.8955C44.028 52.4531 44.028 51.7356 43.5818 51.2931L37.3149 45.0778C37.0777 44.8426 36.748 44.7224 36.4136 44.7496L36.0514 44.779C34.3794 44.915 32.7267 44.5518 31.2837 43.7499L32.0179 43.0191C36.3606 42.7535 40.4264 40.9389 43.5115 37.8794ZM17.5688 30.3565C17.1872 30.7351 16.6797 30.9434 16.1402 30.9434C15.6005 30.9434 15.0932 30.7351 14.7116 30.3565L11.6244 27.2951C10.8366 26.5139 10.8366 25.2428 11.6244 24.4615C12.006 24.0829 12.5134 23.8746 13.0531 23.8746C13.5927 23.8746 14.1001 24.0829 14.4817 24.4615L17.5689 27.5229C18.3566 28.3041 18.3566 29.5752 17.5688 30.3565ZM22.0421 25.9205C21.2542 26.7017 19.9722 26.7017 19.1847 25.9205L16.0974 22.859L14.5623 21.3367C13.7746 20.5555 13.7746 19.2844 14.5623 18.5032C14.944 18.1246 15.4514 17.9163 15.9909 17.9163C16.5307 17.9163 17.038 18.1246 17.4195 18.5032L22.0417 23.0869C22.0417 23.0869 22.0417 23.0869 22.0419 23.0869C22.4236 23.4655 22.6337 23.9686 22.6337 24.5037C22.6337 25.0389 22.4236 25.5421 22.0421 25.9205ZM26.5151 21.4847C25.7272 22.2658 24.4453 22.2659 23.6577 21.4847L17.9171 15.792C17.5355 15.4135 17.3254 14.9105 17.3254 14.3753C17.3254 13.8401 17.5355 13.3369 17.9172 12.9586C18.3111 12.568 18.8286 12.3727 19.3458 12.3727C19.8629 12.3727 20.3798 12.5678 20.7735 12.9577L23.3899 15.5523L26.5149 18.6512H26.515C26.8965 19.0297 27.1066 19.5326 27.1066 20.0679C27.1068 20.6031 26.8968 21.1063 26.5151 21.4847ZM30.9883 17.0488C30.2005 17.83 28.9187 17.83 28.1309 17.0488L22.3904 11.3561C22.3898 11.3555 22.3891 11.355 22.3884 11.3543L21.272 10.2472C20.4843 9.46588 20.4843 8.19487 21.272 7.41357C21.6659 7.02286 22.1834 6.82756 22.7007 6.82756C23.2181 6.82756 23.7356 7.02286 24.1293 7.41357L30.988 14.2151C31.3698 14.5936 31.5799 15.0966 31.5799 15.6318C31.58 16.1671 31.37 16.6705 30.9883 17.0488ZM31.2887 11.3086L28.1505 8.19657C28.5063 8.2719 28.8722 8.31189 29.2446 8.31177C29.2529 8.31177 29.2614 8.31177 29.2698 8.31177L32.4053 8.29716C33.0362 8.29422 33.5455 7.78456 33.5425 7.1588C33.5395 6.53484 33.0286 6.03108 32.4001 6.03108C32.3982 6.03108 32.3964 6.03108 32.3946 6.03108L29.2591 6.0457C29.2543 6.0457 29.2497 6.0457 29.2449 6.0457C28.4724 6.0457 27.7457 5.74833 27.1979 5.20764C26.6466 4.66344 26.3431 3.93912 26.3431 3.16767V2.81491H34.1724C35.6431 2.81491 37.0613 3.4272 38.0634 4.49499L38.1099 4.54449L31.2887 11.3086Z" fill="black"/>
</svg>
