<svg width="68" height="67" viewBox="0 0 68 67" fill="none" xmlns="http://www.w3.org/2000/svg">
<g filter="url(#filter0_d)">
<path d="M44.4365 38.7708L34.874 24.9583C34.7762 24.817 34.6456 24.7014 34.4934 24.6216C34.3412 24.5418 34.1719 24.5001 34.0001 24.5001C33.8282 24.5001 33.6589 24.5418 33.5067 24.6216C33.3545 24.7014 33.2239 24.817 33.1262 24.9583L23.5637 38.7708C23.4698 38.9064 23.4088 39.0619 23.3855 39.2251C23.3622 39.3883 23.3773 39.5547 23.4295 39.7111L26.1508 47.8751H25.5001C25.2183 47.8751 24.948 47.987 24.7488 48.1863C24.5495 48.3856 24.4376 48.6558 24.4376 48.9376V52.1251C24.4376 52.4069 24.5495 52.6772 24.7488 52.8764C24.948 53.0757 25.2183 53.1876 25.5001 53.1876H26.5626V64.8751C26.5626 65.1569 26.6745 65.4272 26.8738 65.6264C27.073 65.8257 27.3433 65.9376 27.6251 65.9376H40.3751C40.6569 65.9376 40.9271 65.8257 41.1264 65.6264C41.3256 65.4272 41.4376 65.1569 41.4376 64.8751V53.1876H42.5001C42.7819 53.1876 43.0521 53.0757 43.2514 52.8764C43.4506 52.6772 43.5626 52.4069 43.5626 52.1251V48.9376C43.5626 48.6558 43.4506 48.3856 43.2514 48.1863C43.0521 47.987 42.7819 47.8751 42.5001 47.8751H41.8493L44.5706 39.7111C44.6228 39.5547 44.6379 39.3883 44.6146 39.2251C44.5913 39.0619 44.5303 38.9064 44.4365 38.7708ZM34.0001 37.2501C34.2102 37.2501 34.4156 37.3124 34.5904 37.4292C34.7651 37.5459 34.9013 37.7119 34.9817 37.906C35.0621 38.1002 35.0831 38.3138 35.0422 38.5199C35.0012 38.726 34.9 38.9153 34.7514 39.0639C34.6028 39.2125 34.4135 39.3137 34.2074 39.3547C34.0012 39.3957 33.7876 39.3746 33.5935 39.2942C33.3993 39.2138 33.2334 39.0776 33.1166 38.9029C32.9999 38.7282 32.9376 38.5227 32.9376 38.3126C32.938 38.0309 33.05 37.7609 33.2492 37.5617C33.4484 37.3626 33.7184 37.2505 34.0001 37.2501ZM39.3126 63.8126H28.6876V53.1876H39.3126V63.8126ZM41.4376 51.0626H26.5626V50.0001H41.4376V51.0626ZM39.6087 47.8751H28.3914L25.613 39.5438L32.9376 28.9639V35.1251C32.9381 35.1848 32.9435 35.2443 32.9535 35.3031C32.2419 35.5504 31.6409 36.0418 31.2571 36.6901C30.8734 37.3384 30.7316 38.1017 30.8571 38.8446C30.9825 39.5874 31.367 40.2618 31.9423 40.7482C32.5177 41.2345 33.2467 41.5014 34.0001 41.5014C34.7534 41.5014 35.4825 41.2345 36.0578 40.7482C36.6332 40.2618 37.0177 39.5874 37.1431 38.8446C37.2685 38.1017 37.1268 37.3384 36.743 36.6901C36.3592 36.0418 35.7582 35.5504 35.0466 35.3031C35.0567 35.2443 35.062 35.1848 35.0626 35.1251V28.9639L42.3872 39.5438L39.6087 47.8751Z" fill="black"/>
<path d="M65.875 11.75H61.625C61.3432 11.75 61.073 11.8619 60.8737 12.0612C60.6744 12.2605 60.5625 12.5307 60.5625 12.8125V13.8843C60.5185 13.8785 60.4741 13.8754 60.4297 13.875H37.1875V12.8125C37.1875 12.5307 37.0756 12.2605 36.8763 12.0612C36.677 11.8619 36.4068 11.75 36.125 11.75H35.0625V6.4375H36.125C36.4068 6.4375 36.677 6.32556 36.8763 6.1263C37.0756 5.92704 37.1875 5.65679 37.1875 5.375V1.125C37.1875 0.843207 37.0756 0.572956 36.8763 0.373699C36.677 0.174442 36.4068 0.0625 36.125 0.0625H31.875C31.5932 0.0625 31.323 0.174442 31.1237 0.373699C30.9244 0.572956 30.8125 0.843207 30.8125 1.125V5.375C30.8125 5.65679 30.9244 5.92704 31.1237 6.1263C31.323 6.32556 31.5932 6.4375 31.875 6.4375H32.9375V11.75H31.875C31.5932 11.75 31.323 11.8619 31.1237 12.0612C30.9244 12.2605 30.8125 12.5307 30.8125 12.8125V13.875H7.4375V12.8125C7.4375 12.5307 7.32556 12.2605 7.1263 12.0612C6.92704 11.8619 6.65679 11.75 6.375 11.75H2.125C1.84321 11.75 1.57296 11.8619 1.3737 12.0612C1.17444 12.2605 1.0625 12.5307 1.0625 12.8125V17.0625C1.0625 17.3443 1.17444 17.6145 1.3737 17.8138C1.57296 18.0131 1.84321 18.125 2.125 18.125H6.375C6.65679 18.125 6.92704 18.0131 7.1263 17.8138C7.32556 17.6145 7.4375 17.3443 7.4375 17.0625V16H25.0033C23.601 16.9278 22.3476 18.0629 21.2859 19.3668C18.5619 22.6698 17 26.8641 17 30.875H15.9375C15.6557 30.875 15.3855 30.9869 15.1862 31.1862C14.9869 31.3855 14.875 31.6557 14.875 31.9375V36.1875C14.875 36.4693 14.9869 36.7395 15.1862 36.9388C15.3855 37.1381 15.6557 37.25 15.9375 37.25H20.1875C20.4693 37.25 20.7395 37.1381 20.9388 36.9388C21.1381 36.7395 21.25 36.4693 21.25 36.1875V31.9375C21.25 31.6557 21.1381 31.3855 20.9388 31.1862C20.7395 30.9869 20.4693 30.875 20.1875 30.875H19.125C19.125 22.9966 25.1866 16.7823 30.8125 16.0691V17.0625C30.8125 17.3443 30.9244 17.6145 31.1237 17.8138C31.323 18.0131 31.5932 18.125 31.875 18.125H36.125C36.4068 18.125 36.677 18.0131 36.8763 17.8138C37.0756 17.6145 37.1875 17.3443 37.1875 17.0625V16.0651C40.0642 16.4064 42.8254 18.1303 45.054 21.0057C47.2228 23.8014 48.6001 27.4219 48.8378 30.875H47.8125C47.5307 30.875 47.2605 30.9869 47.0612 31.1862C46.8619 31.3855 46.75 31.6557 46.75 31.9375V36.1875C46.75 36.4693 46.8619 36.7395 47.0612 36.9388C47.2605 37.1381 47.5307 37.25 47.8125 37.25H52.0625C52.3443 37.25 52.6145 37.1381 52.8138 36.9388C53.0131 36.7395 53.125 36.4693 53.125 36.1875V31.9375C53.125 31.6557 53.0131 31.3855 52.8138 31.1862C52.6145 30.9869 52.3443 30.875 52.0625 30.875H50.9668C50.7344 26.9291 49.2216 22.9102 46.7341 19.7028C45.6401 18.2666 44.3216 17.0163 42.8294 16H60.4297C60.4741 15.9996 60.5185 15.9965 60.5625 15.9907V17.0625C60.5625 17.3443 60.6744 17.6145 60.8737 17.8138C61.073 18.0131 61.3432 18.125 61.625 18.125H65.875C66.1568 18.125 66.427 18.0131 66.6263 17.8138C66.8256 17.6145 66.9375 17.3443 66.9375 17.0625V12.8125C66.9375 12.5307 66.8256 12.2605 66.6263 12.0612C66.427 11.8619 66.1568 11.75 65.875 11.75ZM5.3125 16H3.1875V13.875H5.3125V16ZM19.125 35.125H17V33H19.125V35.125ZM32.9375 2.1875H35.0625V4.3125H32.9375V2.1875ZM35.0625 16H32.9375V13.875H35.0625V16ZM48.875 33H51V35.125H48.875V33ZM64.8125 16H62.6875V13.875H64.8125V16Z" fill="black"/>
</g>
<defs>
<filter id="filter0_d" x="-2.9375" y="0.0625" width="73.875" height="73.8751" filterUnits="userSpaceOnUse" color-interpolation-filters="sRGB">
<feFlood flood-opacity="0" result="BackgroundImageFix"/>
<feColorMatrix in="SourceAlpha" type="matrix" values="0 0 0 0 0 0 0 0 0 0 0 0 0 0 0 0 0 0 127 0"/>
<feOffset dy="4"/>
<feGaussianBlur stdDeviation="2"/>
<feColorMatrix type="matrix" values="0 0 0 0 0 0 0 0 0 0 0 0 0 0 0 0 0 0 0.25 0"/>
<feBlend mode="normal" in2="BackgroundImageFix" result="effect1_dropShadow"/>
<feBlend mode="normal" in="SourceGraphic" in2="effect1_dropShadow" result="shape"/>
</filter>
</defs>
</svg>
